<svg aria-hidden="true" style="width:0;height:0;position:absolute;overflow:hidden" xmlns="http://www.w3.org/2000/svg"><defs><symbol id="icon-logo" viewBox="0 0 32 32"><path fill="none" stroke="#fff" stroke-linejoin="round" stroke-linecap="round" stroke-width="2.909" d="M27.375 1.455H4.626a3.171 3.171 0 0 0-3.171 3.171v22.749a3.171 3.171 0 0 0 3.171 3.171h22.749a3.171 3.171 0 0 0 3.171-3.171v0V4.626a3.171 3.171 0 0 0-3.171-3.171v0zm-18.648 0v29.091M23.273 1.455v29.091M1.455 16h29.091M1.455 8.727h7.273M1.455 23.273h7.273m14.545 0h7.273M23.273 8.727h7.273"/></symbol><symbol id="icon-search" viewBox="0 0 32 32"><path fill="none" stroke="#fff" style="stroke:var(--color1,#fff)" stroke-linejoin="round" stroke-linecap="round" stroke-width="2.909" d="M14.545 26.182c6.427 0 11.636-5.21 11.636-11.636S20.971 2.91 14.545 2.91c-6.427 0-11.636 5.21-11.636 11.636s5.21 11.636 11.636 11.636zM29.091 29.091l-6.327-6.327"/></symbol><symbol id="icon-arrow-right" viewBox="0 0 29 32"><path stroke="#000" stroke-linejoin="round" stroke-linecap="round" stroke-width="3.555" d="M2.667 16h24.888"/><path stroke="#000" stroke-linecap="round" stroke-width="3.547" d="M27.555 16 14.222 29.333M27.555 16 14.222 2.667"/></symbol><symbol id="icon-arrow-left" viewBox="0 0 29 32"><path stroke="#000" stroke-linejoin="round" stroke-linecap="round" stroke-width="3.555" d="M27.555 16H2.667"/><path stroke="#000" stroke-linecap="round" stroke-width="3.547" d="M2.667 16 16 2.667M2.667 16 16 29.333"/></symbol><symbol id="icon-heart" viewBox="0 0 34 32"><path d="m17.231 31.705-2.412-2.412C5.859 21.367.001 16.025.001 9.478.001 4.136 4.136.001 9.478.001c2.929 0 5.858 1.378 7.754 3.618 1.895-2.24 4.825-3.618 7.754-3.618 5.342 0 9.477 4.135 9.477 9.477 0 6.548-5.858 11.889-14.818 19.815l-2.412 2.412z"/></symbol><symbol id="icon-view-trailer" viewBox="0 0 38 32"><path d="m25.363 11.88-8.668-5.818a1.436 1.436 0 0 0-2.038.456l-.004.007c-.129.213-.205.47-.205.745v11.639c0 .551.305 1.03.755 1.279l.008.004a1.433 1.433 0 0 0 1.489-.075l-.005.003 8.669-5.818c.391-.264.644-.706.644-1.206v-.005a1.462 1.462 0 0 0-.639-1.207l-.005-.003zm-8.026 4.311V10l4.621 3.091-4.619 3.1zM34.675 0H2.889C2.124 0 1.386.306.845.851a2.918 2.918 0 0 0-.846 2.058v20.363c0 .772.305 1.512.846 2.058a2.884 2.884 0 0 0 2.044.851h31.786c.765 0 1.503-.306 2.044-.851a2.915 2.915 0 0 0 .846-2.058V2.909c0-.772-.305-1.511-.846-2.058A2.87 2.87 0 0 0 34.675 0zm0 23.272H2.889V2.909h31.786v20.363zm2.89 7.273c0 .387-.153.757-.423 1.03a1.436 1.436 0 0 1-1.022.426H1.446c-.383 0-.751-.153-1.021-.426a1.457 1.457 0 0 1 0-2.058 1.44 1.44 0 0 1 1.021-.426h34.677c.383 0 .751.153 1.021.426.271.273.423.643.423 1.03z"/></symbol><symbol id="icon-Email" viewBox="0 0 37 32"><path d="M19.623 26.432c0-.599.073-1.182.16-1.762H3.57V7.047l14.272 8.811 14.272-8.809v8.969c1.339.228 2.538.671 3.617 1.296l-.052-.028V3.524c0-1.938-1.605-3.525-3.566-3.525H3.564c-1.961 0-3.566 1.586-3.566 3.525v21.145c0 1.938 1.605 3.525 3.568 3.525h16.217a11.184 11.184 0 0 1-.16-1.754v-.009zM32.114 3.525 17.84 12.334 3.566 3.525H32.11zM28.098 32l-4.907-5.287 2.071-2.043 2.834 2.802 6.407-6.327 2.069 2.485L28.099 32z"/></symbol><symbol id="icon-Telegram" viewBox="0 0 37 32"><path d="M7.877 19.36 2.16 17.438c-.064-.027-.219-.089-.293-.126a4.121 4.121 0 0 1-.61-.357c-.423-.299-1.113-.921-1.239-1.927-.16-1.264.779-2.032 1.189-2.311l-.015.01c.298-.205.623-.375.998-.515L32.261.415c.153-.062.309-.119.466-.167l-.037.011a5.235 5.235 0 0 1 1.194-.248c.423-.032 1.09-.014 1.689.375.702.455.999 1.209.999 2v-.001.016c0 .088-.008.173-.023.248l-5.362 27.019a1.305 1.305 0 0 1-.072.231v.005l-.005.007-.005.014-.016.041a3.622 3.622 0 0 1-1.015 1.307 3.137 3.137 0 0 1-1.527.663c-.645.085-1.328-.023-2.032-.329a1.213 1.213 0 0 1-.281-.167l-5.87-4.498-5.088 3.173a2.547 2.547 0 0 1-.546.27l.015-.005a2.12 2.12 0 0 1-.707.12c-.395 0-.765-.107-1.073-.289a2.156 2.156 0 0 1-.521-.478c-.288-.368-.549-.905-.8-1.691-.199-.64-1.111-2.866-2.016-5.026l-1.515-3.6a1.21 1.21 0 0 1-.238-.055zM33.294 2.907h-.005c-.007.003-.022.01-.037.015l-.008.003L3.157 14.728a.33.33 0 0 1-.036.015l-.01.003-.018.005a2.145 2.145 0 0 0-.174.078l.011-.005c.042.024.093.049.145.072l.01.004 5.646 1.902c.111.037.207.084.296.14l-.005-.003 18.672-10.93c.228-.141.49-.263.768-.352l.025-.007a1.934 1.934 0 0 1 1.173-.02l-.014-.004c.556.179.968.651 1.057 1.23l.001.009c.066.249.069.512.005.761-.126.494-.471.88-.789 1.175-.267.251-3.765 3.623-7.216 6.953l-5.527 5.339 10.555 8.091a.947.947 0 0 0 .454.073h-.003a.41.41 0 0 0 .211-.092l-.001.001a.906.906 0 0 0 .183-.213l.002-.004h.005l5.195-26.201a3.402 3.402 0 0 0-.48.155h-.005zM18.08 25.189l-2.107-1.616-.51 3.246 2.617-1.63zm-4.039-4.819 8.542-8.242-11.721 6.862.064.146a691.07 691.07 0 0 1 2.194 5.25l.507-3.237c.049-.31.198-.579.413-.779l.001-.001z"/></symbol><symbol id="icon-UpperCode-dark" viewBox="0 0 167 32"><path fill="#fff" style="fill:var(--color1,#fff)" d="M.727.727h2.182v13.04a27.265 27.265 0 0 0 .094 3.01l-.007-.101c.075.801.336 1.529.739 2.157l-.012-.019a4.392 4.392 0 0 0 1.776 1.444l.028.011a5.59 5.59 0 0 0 2.449.575h.002a4.799 4.799 0 0 0 2.087-.493l-.028.013a4.669 4.669 0 0 0 1.637-1.258l.006-.008a5.12 5.12 0 0 0 .959-1.913l.008-.036a15.843 15.843 0 0 0 .217-3.407l.001.032V.727h2.182v13.04a15.776 15.776 0 0 1-.594 4.78l.027-.111a6.36 6.36 0 0 1-2.245 3.093l-.017.012a6.424 6.424 0 0 1-4.111 1.323h.009a7.785 7.785 0 0 1-4.51-1.27l.03.018a6.017 6.017 0 0 1-2.49-3.259l-.011-.042a17.153 17.153 0 0 1-.422-3.829c0-.252.005-.502.016-.752l-.001.036zm19.302 5.622h2.058v2.909a8.338 8.338 0 0 1 2.758-2.488l.042-.021a7.327 7.327 0 0 1 3.54-.836h-.006l.105-.001c2.247 0 4.274.94 5.711 2.448l.003.003a8.09 8.09 0 0 1 2.415 5.777l-.001.127v-.006l.002.16c0 2.272-.914 4.33-2.395 5.826l.001-.001a8.057 8.057 0 0 1-5.804 2.458 8.057 8.057 0 0 1-3.539-.814l.048.021a8.943 8.943 0 0 1-2.896-2.347l-.013-.017v8.618h-2.029zm8.226 1.571-.118-.001c-1.718 0-3.27.714-4.375 1.861l-.002.002a6.34 6.34 0 0 0-1.818 4.642v-.009l-.001.109a6.52 6.52 0 0 0 .832 3.197l-.017-.033a5.96 5.96 0 0 0 2.297 2.29l.03.015a6.43 6.43 0 0 0 3.2.844h.007a6.068 6.068 0 0 0 3.134-.866l-.028.015a6.383 6.383 0 0 0 2.303-2.368l.017-.032c.542-.926.862-2.038.862-3.225s-.32-2.3-.879-3.256l.017.031c-1.071-1.93-3.097-3.215-5.423-3.215h-.048.002zm12.283-1.571h2.058v2.909a8.257 8.257 0 0 1 2.758-2.488l.042-.021a7.327 7.327 0 0 1 3.54-.836h-.006l.114-.001c2.244 0 4.269.94 5.701 2.448l.003.003a8.07 8.07 0 0 1 2.423 5.775l-.001.13v-.007l.002.162c0 2.272-.917 4.33-2.402 5.824a8.052 8.052 0 0 1-5.8 2.458 8.035 8.035 0 0 1-3.535-.813l.048.021a8.87 8.87 0 0 1-2.896-2.346l-.013-.017v8.618h-2.036zm8.226 1.571-.124-.001a6.042 6.042 0 0 0-4.369 1.861l-.002.002a6.34 6.34 0 0 0-1.818 4.642v-.009l-.001.104c0 1.162.299 2.254.825 3.203l-.017-.034a6.032 6.032 0 0 0 2.304 2.29l.03.016a6.43 6.43 0 0 0 3.2.844h.011c1.142 0 2.21-.316 3.121-.866l-.027.015a6.413 6.413 0 0 0 2.311-2.368l.017-.032c.542-.926.862-2.038.862-3.225s-.32-2.3-.879-3.256l.017.031c-1.071-1.93-3.097-3.215-5.423-3.215h-.048.002zm25.701 9.105 1.731.909a9.407 9.407 0 0 1-1.967 2.695l-.004.004a7.778 7.778 0 0 1-2.456 1.545l-.053.018a8.63 8.63 0 0 1-3.03.539l-.133-.001h.007a7.63 7.63 0 0 1-6.11-2.553l-.007-.008a8.62 8.62 0 0 1-2.182-5.748v-.074.004-.079c0-2.025.705-3.885 1.882-5.348l-.013.017c1.402-1.848 3.599-3.03 6.072-3.03.09 0 .179.002.268.005h-.013A7.855 7.855 0 0 1 74.989 9l.014.019a8.578 8.578 0 0 1 1.767 5.466v-.011H62.355l-.001.085c0 1.736.676 3.314 1.778 4.485l-.003-.003a5.668 5.668 0 0 0 4.145 1.797l.092-.001h-.005.015a6.83 6.83 0 0 0 2.41-.437l-.047.016a6.199 6.199 0 0 0 1.994-1.135l-.009.007a9.39 9.39 0 0 0 1.714-2.214l.024-.047zm0-4.305a6.862 6.862 0 0 0-1.213-2.643l.013.018a5.674 5.674 0 0 0-2.044-1.571l-.035-.014a6.278 6.278 0 0 0-2.707-.604h-.014.001-.063a5.846 5.846 0 0 0-3.977 1.553l.004-.004a6.784 6.784 0 0 0-1.874 3.219l-.01.047z"/><path fill="#0071bc" style="fill:var(--color2,#0071bc)" d="m106.56 13.142-1.702 1.309a9.322 9.322 0 0 0-3.328-2.79l-.054-.024a9.735 9.735 0 0 0-4.219-.947l-.152.001h.008a9.558 9.558 0 0 0-4.795 1.297l.046-.025a8.956 8.956 0 0 0-3.403 3.268l-.022.041a9.087 9.087 0 0 0-1.209 4.556l.001.157v-.008a8.803 8.803 0 0 0 2.703 6.586l.003.003a9.364 9.364 0 0 0 6.852 2.64h-.015l.132.001a9.58 9.58 0 0 0 7.44-3.533l.014-.017 1.702 1.287a10.79 10.79 0 0 1-3.949 3.172l-.066.028c-1.531.713-3.324 1.129-5.213 1.129l-.2-.002h.01q-5.673 0-8.945-3.775a11.339 11.339 0 0 1-2.741-7.708v.014a10.67 10.67 0 0 1 3.319-7.996l.004-.004a11.45 11.45 0 0 1 8.344-3.236h-.017l.123-.001c1.935 0 3.764.451 5.388 1.254l-.071-.032a10.56 10.56 0 0 1 3.994 3.322l.021.03zm11.556 1.207.192-.002a7.886 7.886 0 0 1 5.917 2.663l.007.008a8.551 8.551 0 0 1 2.21 5.751 8.56 8.56 0 0 1-2.337 5.89l.004-.004c-1.531 1.546-3.654 2.503-6 2.503s-4.469-.957-5.999-2.502l-.001-.001a8.514 8.514 0 0 1-2.349-5.885c0-2.218.845-4.239 2.231-5.758l-.006.007a7.885 7.885 0 0 1 6.142-2.669h-.011zm0 2.007h-.057a5.931 5.931 0 0 0-4.347 1.888l-.003.003a6.314 6.314 0 0 0-1.84 4.588v-.006.005a6.46 6.46 0 0 0 .875 3.256l-.017-.031a5.868 5.868 0 0 0 2.212 2.291l.028.015c.904.513 1.986.815 3.138.815s2.234-.302 3.17-.831l-.032.017a5.923 5.923 0 0 0 2.254-2.282l.015-.03c.535-.923.851-2.03.851-3.212v-.01.001l.001-.107a6.322 6.322 0 0 0-1.848-4.475 5.942 5.942 0 0 0-4.353-1.891h-.057.003zm28.066-7.767v22.138h-2.022v-2.742a8.98 8.98 0 0 1-2.859 2.34l-.05.023a7.99 7.99 0 0 1-3.496.793 8.073 8.073 0 0 1-5.811-2.457l-.002-.002a8.236 8.236 0 0 1-2.4-5.994v.008l-.001-.129c0-2.259.927-4.302 2.422-5.768l.001-.001a7.884 7.884 0 0 1 5.823-2.45h-.005l.112-.001c1.258 0 2.444.31 3.486.857l-.041-.02a8.133 8.133 0 0 1 2.783 2.483l.017.026V8.588zm-8.211 7.738h-.034a6.223 6.223 0 0 0-3.167.86l.029-.016a6.218 6.218 0 0 0-2.289 2.339l-.016.032a6.343 6.343 0 0 0-.858 3.207v.015-.001a6.508 6.508 0 0 0 .882 3.26l-.017-.031a6.294 6.294 0 0 0 2.298 2.377l.029.016a5.964 5.964 0 0 0 3.1.858h.028-.001a6.358 6.358 0 0 0 3.222-.896l-.029.016a5.996 5.996 0 0 0 2.312-2.269l.015-.029a6.467 6.467 0 0 0 .815-3.164l-.001-.115v.006l.002-.145a6.35 6.35 0 0 0-1.828-4.467l.001.001a6.012 6.012 0 0 0-4.502-1.854h.007zm26.313 9.128 1.731.909a9.524 9.524 0 0 1-1.96 2.695l-.003.003a7.876 7.876 0 0 1-2.463 1.545l-.054.019a8.63 8.63 0 0 1-3.03.539l-.133-.001h.007a7.617 7.617 0 0 1-6.11-2.56l-.007-.008a8.687 8.687 0 0 1-2.209-5.803 8.69 8.69 0 0 1 1.888-5.422l-.014.018a7.626 7.626 0 0 1 6.347-3.017h-.013a7.888 7.888 0 0 1 6.532 3.072l.014.018a8.663 8.663 0 0 1 1.738 5.451v-.011h-14.371l-.001.085c0 1.736.676 3.314 1.778 4.485l-.003-.003a5.666 5.666 0 0 0 4.126 1.776l.128-.001h-.006.015a6.83 6.83 0 0 0 2.41-.437l-.047.016a6.165 6.165 0 0 0 1.972-1.134l-.008.007a9.6 9.6 0 0 0 1.721-2.193l.025-.047zm0-4.306a6.715 6.715 0 0 0-1.212-2.642l.012.017a5.657 5.657 0 0 0-2.044-1.571l-.036-.014a6.27 6.27 0 0 0-2.705-.604h-.008l-.129-.001c-1.51 0-2.885.575-3.919 1.518l.005-.004a6.835 6.835 0 0 0-1.859 3.255l-.01.047z"/><path fill="#fff" style="fill:var(--color1,#fff)" d="M79.782 6.349h2.095v16h-2.095z"/><path fill="#fff" style="fill:var(--color1,#fff)" d="M82.72 12.785a10.095 10.095 0 0 1 2.627-3.56l.013-.011a9.216 9.216 0 0 1 3.858-1.93l.063-.012-.502-2.095a10.703 10.703 0 0 0-4.707 2.29l.016-.013a12.352 12.352 0 0 0-3.285 4.423l-.031.079a12.386 12.386 0 0 0-.978 3.131l-.011.076v2.335h2.095l-.001-.176c0-1.632.31-3.191.875-4.622l-.03.085z"/></symbol><symbol id="icon-UpperCode-light" viewBox="0 0 167 32"><path style="fill:var(--color3,#000)" d="M.727.727h2.182v13.04a27.265 27.265 0 0 0 .094 3.01l-.007-.101c.075.801.336 1.529.739 2.157l-.012-.019a4.392 4.392 0 0 0 1.776 1.444l.028.011a5.59 5.59 0 0 0 2.449.575h.002a4.799 4.799 0 0 0 2.087-.493l-.028.013a4.669 4.669 0 0 0 1.637-1.258l.006-.008a5.12 5.12 0 0 0 .959-1.913l.008-.036a15.843 15.843 0 0 0 .217-3.407l.001.032V.727h2.182v13.04a15.776 15.776 0 0 1-.594 4.78l.027-.111a6.36 6.36 0 0 1-2.245 3.093l-.017.012a6.424 6.424 0 0 1-4.111 1.323h.009a7.785 7.785 0 0 1-4.51-1.27l.03.018a6.017 6.017 0 0 1-2.49-3.259l-.011-.042a17.153 17.153 0 0 1-.422-3.829c0-.252.005-.502.016-.752l-.001.036zm19.302 5.622h2.058v2.909a8.338 8.338 0 0 1 2.758-2.488l.042-.021a7.327 7.327 0 0 1 3.54-.836h-.006l.105-.001c2.247 0 4.274.94 5.711 2.448l.003.003a8.09 8.09 0 0 1 2.415 5.777l-.001.127v-.006l.002.16c0 2.272-.914 4.33-2.395 5.826l.001-.001a8.057 8.057 0 0 1-5.804 2.458 8.057 8.057 0 0 1-3.539-.814l.048.021a8.943 8.943 0 0 1-2.896-2.347l-.013-.017v8.618h-2.029zm8.226 1.571-.118-.001c-1.718 0-3.27.714-4.375 1.861l-.002.002a6.34 6.34 0 0 0-1.818 4.642v-.009l-.001.109a6.52 6.52 0 0 0 .832 3.197l-.017-.033a5.96 5.96 0 0 0 2.297 2.29l.03.015a6.43 6.43 0 0 0 3.2.844h.007a6.068 6.068 0 0 0 3.134-.866l-.028.015a6.383 6.383 0 0 0 2.303-2.368l.017-.032c.542-.926.862-2.038.862-3.225s-.32-2.3-.879-3.256l.017.031c-1.071-1.93-3.097-3.215-5.423-3.215h-.048.002zm12.283-1.571h2.058v2.909a8.257 8.257 0 0 1 2.758-2.488l.042-.021a7.327 7.327 0 0 1 3.54-.836h-.006l.114-.001c2.244 0 4.269.94 5.701 2.448l.003.003a8.07 8.07 0 0 1 2.423 5.775l-.001.13v-.007l.002.162c0 2.272-.917 4.33-2.402 5.824a8.052 8.052 0 0 1-5.8 2.458 8.035 8.035 0 0 1-3.535-.813l.048.021a8.87 8.87 0 0 1-2.896-2.346l-.013-.017v8.618h-2.036zm8.226 1.571-.124-.001a6.042 6.042 0 0 0-4.369 1.861l-.002.002a6.34 6.34 0 0 0-1.818 4.642v-.009l-.001.104c0 1.162.299 2.254.825 3.203l-.017-.034a6.032 6.032 0 0 0 2.304 2.29l.03.016a6.43 6.43 0 0 0 3.2.844h.011c1.142 0 2.21-.316 3.121-.866l-.027.015a6.413 6.413 0 0 0 2.311-2.368l.017-.032c.542-.926.862-2.038.862-3.225s-.32-2.3-.879-3.256l.017.031c-1.071-1.93-3.097-3.215-5.423-3.215h-.048.002zm25.701 9.105 1.731.909a9.407 9.407 0 0 1-1.967 2.695l-.004.004a7.778 7.778 0 0 1-2.456 1.545l-.053.018a8.63 8.63 0 0 1-3.03.539l-.133-.001h.007a7.63 7.63 0 0 1-6.11-2.553l-.007-.008a8.62 8.62 0 0 1-2.182-5.748v-.074.004-.079c0-2.025.705-3.885 1.882-5.348l-.013.017c1.402-1.848 3.599-3.03 6.072-3.03.09 0 .179.002.268.005h-.013A7.855 7.855 0 0 1 74.989 9l.014.019a8.578 8.578 0 0 1 1.767 5.466v-.011H62.355l-.001.085c0 1.736.676 3.314 1.778 4.485l-.003-.003a5.668 5.668 0 0 0 4.145 1.797l.092-.001h-.005.015a6.83 6.83 0 0 0 2.41-.437l-.047.016a6.199 6.199 0 0 0 1.994-1.135l-.009.007a9.39 9.39 0 0 0 1.714-2.214l.024-.047zm0-4.305a6.862 6.862 0 0 0-1.213-2.643l.013.018a5.674 5.674 0 0 0-2.044-1.571l-.035-.014a6.278 6.278 0 0 0-2.707-.604h-.014.001-.063a5.846 5.846 0 0 0-3.977 1.553l.004-.004a6.784 6.784 0 0 0-1.874 3.219l-.01.047z"/><path fill="#0071bc" style="fill:var(--color2,#0071bc)" d="m106.56 13.142-1.702 1.309a9.322 9.322 0 0 0-3.328-2.79l-.054-.024a9.735 9.735 0 0 0-4.219-.947l-.152.001h.008a9.558 9.558 0 0 0-4.795 1.297l.046-.025a8.956 8.956 0 0 0-3.403 3.268l-.022.041a9.087 9.087 0 0 0-1.209 4.556l.001.157v-.008a8.803 8.803 0 0 0 2.703 6.586l.003.003a9.364 9.364 0 0 0 6.852 2.64h-.015l.132.001a9.58 9.58 0 0 0 7.44-3.533l.014-.017 1.702 1.287a10.79 10.79 0 0 1-3.949 3.172l-.066.028c-1.531.713-3.324 1.129-5.213 1.129l-.2-.002h.01q-5.673 0-8.945-3.775a11.339 11.339 0 0 1-2.741-7.708v.014a10.67 10.67 0 0 1 3.319-7.996l.004-.004a11.45 11.45 0 0 1 8.344-3.236h-.017l.123-.001c1.935 0 3.764.451 5.388 1.254l-.071-.032a10.56 10.56 0 0 1 3.994 3.322l.021.03zm11.556 1.207.192-.002a7.886 7.886 0 0 1 5.917 2.663l.007.008a8.551 8.551 0 0 1 2.21 5.751 8.56 8.56 0 0 1-2.337 5.89l.004-.004c-1.531 1.546-3.654 2.503-6 2.503s-4.469-.957-5.999-2.502l-.001-.001a8.514 8.514 0 0 1-2.349-5.885c0-2.218.845-4.239 2.231-5.758l-.006.007a7.885 7.885 0 0 1 6.142-2.669h-.011zm0 2.007h-.057a5.931 5.931 0 0 0-4.347 1.888l-.003.003a6.314 6.314 0 0 0-1.84 4.588v-.006.005a6.46 6.46 0 0 0 .875 3.256l-.017-.031a5.868 5.868 0 0 0 2.212 2.291l.028.015c.904.513 1.986.815 3.138.815s2.234-.302 3.17-.831l-.032.017a5.923 5.923 0 0 0 2.254-2.282l.015-.03c.535-.923.851-2.03.851-3.212v-.01.001l.001-.107a6.322 6.322 0 0 0-1.848-4.475 5.942 5.942 0 0 0-4.353-1.891h-.057.003zm28.066-7.767v22.138h-2.022v-2.742a8.888 8.888 0 0 1-2.86 2.34l-.05.023a7.99 7.99 0 0 1-3.496.793 8.073 8.073 0 0 1-5.811-2.457l-.002-.002a8.236 8.236 0 0 1-2.4-5.994v.008l-.001-.129c0-2.259.927-4.302 2.422-5.768l.001-.001a7.884 7.884 0 0 1 5.823-2.45h-.005l.112-.001c1.258 0 2.444.31 3.486.857l-.041-.02a8.133 8.133 0 0 1 2.783 2.483l.017.026V8.588zm-8.211 7.738h-.034a6.223 6.223 0 0 0-3.167.86l.029-.016a6.218 6.218 0 0 0-2.289 2.339l-.016.032a6.343 6.343 0 0 0-.858 3.207v.015-.001a6.508 6.508 0 0 0 .882 3.26l-.017-.031a6.294 6.294 0 0 0 2.298 2.377l.029.016a5.964 5.964 0 0 0 3.1.858h.028-.001.004a6.403 6.403 0 0 0 3.227-.867l-.031.016a6.019 6.019 0 0 0 2.305-2.269l.015-.029a6.467 6.467 0 0 0 .815-3.164l-.001-.115v.006l.002-.174a6.35 6.35 0 0 0-1.829-4.467l.001.001a6.012 6.012 0 0 0-4.502-1.854h.007zm26.313 9.128 1.731.909a9.524 9.524 0 0 1-1.96 2.695l-.003.003a7.876 7.876 0 0 1-2.463 1.545l-.054.019a8.63 8.63 0 0 1-3.03.539l-.133-.001h.007a7.617 7.617 0 0 1-6.11-2.56l-.007-.008a8.687 8.687 0 0 1-2.209-5.803 8.69 8.69 0 0 1 1.888-5.422l-.014.018a7.626 7.626 0 0 1 6.347-3.017h-.013a7.888 7.888 0 0 1 6.532 3.072l.014.018a8.663 8.663 0 0 1 1.738 5.451v-.011h-14.371l-.001.085c0 1.736.676 3.314 1.778 4.485l-.003-.003a5.666 5.666 0 0 0 4.126 1.776l.128-.001h-.006.015a6.83 6.83 0 0 0 2.41-.437l-.047.016a6.165 6.165 0 0 0 1.972-1.134l-.008.007a9.6 9.6 0 0 0 1.721-2.193l.025-.047zm0-4.306a6.715 6.715 0 0 0-1.212-2.642l.012.017a5.657 5.657 0 0 0-2.044-1.571l-.036-.014a6.27 6.27 0 0 0-2.705-.604h-.008l-.129-.001c-1.51 0-2.885.575-3.919 1.518l.005-.004a6.835 6.835 0 0 0-1.859 3.255l-.01.047z"/><path style="fill:var(--color3,#000)" d="M79.782 6.349h2.095v16h-2.095z"/><path style="fill:var(--color3,#000)" d="M82.72 12.785a10.095 10.095 0 0 1 2.627-3.56l.013-.011a9.216 9.216 0 0 1 3.858-1.93l.063-.012-.502-2.095a10.703 10.703 0 0 0-4.707 2.29l.016-.013a12.352 12.352 0 0 0-3.285 4.423l-.031.079a12.386 12.386 0 0 0-.978 3.131l-.011.076v2.335h2.095l-.001-.176c0-1.632.31-3.191.875-4.622l-.03.085z"/></symbol><symbol id="icon-Whatsapp" viewBox="0 0 32 32"><path d="M23.618 18.784c-.414-.178-2.466-1.02-2.848-1.134-.382-.12-.662-.178-.94.178-.28.35-1.072 1.134-1.322 1.37-.242.236-.488.264-.9.09-2.45-1.026-4.06-1.832-5.672-4.152-.428-.62.426-.574 1.224-1.908.136-.234.068-.434-.038-.61-.106-.178-.938-1.894-1.286-2.594-.336-.68-.684-.586-.938-.6-.24-.012-.518-.012-.798-.012a1.685 1.685 0 0 0-1.111.435l.002-.001c-.382.352-1.46 1.198-1.46 2.914s1.494 3.38 1.698 3.614c.212.234 2.938 3.756 7.124 5.272 2.648.958 3.684 1.04 5.008.876.804-.102 2.464-.844 2.81-1.664.344-.816.344-1.516.24-1.662-.1-.156-.38-.244-.792-.412z"/><path d="M30.758 9.8c-1.658-3.876-4.682-6.9-8.454-8.518l-.104-.04C20.38.457 18.26 0 16.034 0h-.106C7.127.019 0 7.158 0 15.962v.118-.006c.01 2.48.604 4.94 1.714 7.14v5.428c0 .908.736 1.644 1.644 1.644H8.79c2.2 1.11 4.66 1.704 7.14 1.714h.074c2.14 0 4.214-.414 6.168-1.226a15.967 15.967 0 0 0 5.101-3.401l-.001.001A15.912 15.912 0 0 0 32 16.072v-.103c0-2.227-.457-4.348-1.282-6.273l.04.104zM25.36 25.442a13.172 13.172 0 0 1-9.318 3.844h-.102a13.28 13.28 0 0 1-6.253-1.589l.071.035-.3-.16h-5.03V22.54l-.16-.3c-.968-1.79-1.542-3.917-1.554-6.176v-.108A13.16 13.16 0 0 1 6.561 6.64a13.146 13.146 0 0 1 9.38-3.926h.093c3.66 0 6.972 1.487 9.366 3.89a13.179 13.179 0 0 1 3.89 9.366v.095-.005a13.194 13.194 0 0 1-3.931 9.381l-.001.001z"/></symbol><symbol id="icon-close" viewBox="0 0 30 30" xmlns="http://www.w3.org/2000/svg"><path d="m26.667 7.303-1.97-1.97-7.808 7.808-7.808-7.808-1.97 1.97 7.808 7.808-7.808 7.808 1.97 1.97 7.808-7.808 7.808 7.808 1.97-1.97-7.808-7.808 7.808-7.808z"/></symbol><symbol id="icon-home" viewBox="0 0 32 32"><path fill="#fff" style="fill:var(--color1,#fff)" d="m31.438 12.579-4.004-3.263V4.097c0-.588-.478-1.066-1.066-1.066h-2.519c-.588 0-1.066.478-1.066 1.066v1.428l-5.35-4.36a2.274 2.274 0 0 0-1.436-.489c-.537 0-1.045.173-1.43.486L.562 12.579c-.636.518-.598.97-.519 1.193s.334.596 1.152.596h1.918v15.014c0 1.072.869 1.943 1.938 1.943h6.056c1.06 0 1.89-.854 1.89-1.943v-6.157c0-.528.485-1.008 1.017-1.008h4.07c.508 0 .921.452.921 1.008v6.157c0 1.053.91 1.943 1.986 1.943h5.959a1.943 1.943 0 0 0 1.938-1.943V14.368h1.918c.817 0 1.072-.373 1.152-.596s.118-.675-.519-1.193z"/></symbol><symbol id="icon-top" viewBox="0 0 29 32"><path stroke="#fff" stroke-linejoin="round" stroke-linecap="round" stroke-width="3.555" d="M27.555 16H2.667"/><path stroke="#fff" stroke-linecap="round" stroke-width="3.547" d="M2.667 16 16 2.667M2.667 16 16 29.333"/><symbol id="icon-not-show-password" viewBox="0 0 32 32"><path d="M29.013 16.293 27.12 14.12c.507-.667.8-1.147.84-1.227.373-.627.16-1.453-.467-1.827s-1.453-.173-1.827.467c-.04.067-3.853 6.333-9.667 6.333s-9.347-6-9.587-6.413a1.358 1.358 0 0 0-1.067-.787 1.335 1.335 0 0 0-1.48 1.173c-.067.533.48 1.427 1.08 2.24l-1.933 2.213a1.328 1.328 0 0 0 .132 1.879l.002.001a1.324 1.324 0 0 0 1.878-.118l.001-.002 1.68-1.92a17.906 17.906 0 0 0 2.413 2.08l-1.653 3.027c-.347.64-.12 1.453.533 1.813a1.343 1.343 0 0 0 1.809-.527l.004-.007 1.627-2.973c.987.44 2.08.747 3.253.893v2.733c0 .733.6 1.333 1.333 1.333s1.333-.6 1.333-1.333v-2.72a11.424 11.424 0 0 0 3.24-.92l1.64 3c.24.44.693.693 1.173.693.213 0 .44-.053.64-.16.64-.347.88-1.16.533-1.813l-1.653-3.027a16.797 16.797 0 0 0 2.453-2.08l1.64 1.88c.267.307.627.453 1 .453.307 0 .627-.107.88-.333.56-.48.613-1.32.133-1.88z"/></symbol><symbol id="icon-show-password" viewBox="0 0 32 32"><path d="M23.59 14.66c.6 1.2.91 2.49.91 3.84 0 4.69-3.81 8.5-8.5 8.5s-8.5-3.81-8.5-8.5S11.31 10 16 10c.07 0 .24 0 .42.06.34.11.59.4.66.75.42 2.01 2.21 3.48 4.27 3.48.38 0 .75-.05 1.07-.14.47-.13.95.09 1.17.51zM16 5C9.16 5 2.15 11 1.01 17.83c-.09.54.28 1.06.82 1.15s1.06-.28 1.15-.82C3.87 12.89 9.62 7 16 7s12.13 5.89 13.01 11.16c.08.49.51.84.99.84.05 0 .11 0 .17-.01.54-.09.91-.61.82-1.15C29.85 11 22.84 5 16 5z"/></symbol><symbol id="icon-password-form" viewBox="0 0 32 32"><path d="M25 12h-1V8c0-4.412-3.588-8-8-8S8 3.588 8 8v4H7a3.004 3.004 0 0 0-3 3v14c0 1.655 1.347 3 3 3h18c1.653 0 3-1.345 3-3V15c0-1.655-1.347-3-3-3zM10.667 8c0-2.941 2.392-5.333 5.333-5.333S21.333 5.059 21.333 8v4H10.666zm6.666 14.296v3.037a1.333 1.333 0 0 1-2.666 0v-3.037A2.658 2.658 0 0 1 13.334 20c0-1.471 1.196-2.667 2.667-2.667s2.667 1.196 2.667 2.667c0 .983-.54 1.833-1.333 2.296z"/></symbol><symbol id="icon-email-form" viewBox="0 0 32 32"><path d="M18.674 19.606a4.812 4.812 0 0 1-5.348 0L.213 10.864a4.305 4.305 0 0 1-.225-.16l.012.009v14.325a2.945 2.945 0 0 0 2.946 2.946h26.108A2.945 2.945 0 0 0 32 25.038V10.713a4.186 4.186 0 0 1-.197.141l-.017.011z"/><path d="m1.253 9.304 13.113 8.742a2.94 2.94 0 0 0 3.268 0l13.113-8.742A2.807 2.807 0 0 0 32 6.962a2.948 2.948 0 0 0-2.945-2.945H2.945A2.948 2.948 0 0 0 0 6.963v.003c0 .971.493 1.827 1.243 2.331l.01.006z"/></symbol></symbol></defs></svg>