<svg xmlns="http://www.w3.org/2000/svg" viewBox="0 0 1000 1000" xml:space="preserve"><path d="M332.49 12.5c-.96 3.64-114.99 364.91-199.52 633.04-27.21 85.86-49.83 157.16-50.21 158.5-1.15 3.07 19.93 9.58 23.19 7.28 10.73-7.86 14.18-9.58 20.51-9.58 10.16 0 17.44 5.94 20.7 16.87 2.68 8.82 3.07 9.2 14.37 12.65 6.52 1.92 106.18 33.54 221.75 69.96 115.57 36.42 211.2 66.31 212.36 66.31 1.15 0 2.11-.77 2.11-1.73 0-3.07 12.65-9.77 18.02-9.77 5.94 0 14.57 4.02 18.4 8.62 1.34 1.73 3.07 6.13 3.64 9.97 1.15 6.51 1.72 7.09 14.37 11.5 7.28 2.3 13.61 4.22 13.8 3.83.38-.38 56.73-178.63 125.54-396.16 68.62-217.53 125.15-396.54 125.73-397.88.58-1.53-3.45-3.83-11.88-6.32-14.76-4.6-16.29-4.79-16.29-1.92 0 5.17-6.71 15.52-11.69 18.02-18.02 9.39-37.57-6.52-32.39-26.07 1.15-4.41 1.92-8.05 1.53-8.43-.38-.19-99.66-31.62-220.98-69.96C504.4 63.1 404.17 31.28 402.83 30.9c-1.34-.57-3.64 2.3-5.56 6.9-4.22 10.93-10.73 15.52-21.27 15.52-7.28 0-9.58-.96-15.33-6.71-6.52-6.52-6.71-7.28-6.13-18.4l.77-11.88-6.71-2.3c-14.58-4.98-14.96-5.17-16.11-1.53zm32.39 66.89c6.52 3.07 12.46 12.46 12.46 19.55 0 2.11-3.45 14.76-7.86 28.17-9.58 29.9-13.8 35.46-27.6 35.46-7.67 0-9.97-.96-15.52-6.52-8.82-8.82-8.43-16.48 1.72-47.15 7.09-21.08 8.82-24.53 14.57-28.17 7.66-5.17 13.6-5.56 22.23-1.34zm243.21 75.9c107.71 33.73 196.26 62.1 197.02 62.67 1.15 1.15-96.79 315.85-99.09 317.96-.95.95-392.12-122.09-394.42-124.2-.77-.77 19.74-68.42 45.61-150.64 56.92-180.54 52.71-167.51 54.05-167.51.57 0 89.12 27.79 196.83 61.72zm-277.33 42.73c6.13 4.03 10.73 15.14 9.2 22.04-.57 3.07-4.6 15.72-8.63 28.17-8.62 26.06-12.84 31.24-25.11 31.24-10.35 0-17.82-4.22-21.66-12.27-1.72-3.64-3.07-7.47-3.07-8.43 0-3.07 14.76-49.26 17.06-53.86 5.96-10.91 21.1-14.17 32.21-6.89zm525.53 36.42c5.17 2.49 11.69 13.03 11.69 18.59 0 4.02-14.76 50.6-17.44 54.81-9.78 15.72-34.88 11.31-39.87-6.9-1.53-5.37-.57-10.73 5.75-31.43 4.41-13.8 8.82-26.64 9.78-28.36 5.55-8.82 19.93-12.08 30.09-6.71zm-562.13 80.69c4.98 3.45 8.43 10.73 8.43 18.21 0 3.07-3.26 16.1-7.09 28.94-7.86 25.3-12.84 32.58-23.57 34.88-12.07 2.3-26.83-9.39-26.83-21.27 0-6.71 15.33-52.9 18.78-56.92 7.66-8.44 20.5-10.17 30.28-3.84zm530.12 40.82c7.28 8.24 7.09 16.48-1.73 43.89-8.24 26.45-14.57 34.88-26.26 34.88-4.02 0-9.58-1.34-12.46-2.88-5.37-2.68-11.69-13.03-11.69-18.97 0-3.45 14.57-49.83 17.25-55.01 5.95-10.92 25.88-12.07 34.89-1.91zm-574.01 92.19c12.65 7.67 13.03 18.02 1.72 51.75-7.67 23.38-13.8 30.67-25.3 30.67-12.84 0-23.77-9.77-23.77-21.08 0-4.98 12.84-46.57 16.67-54.05 5.19-10.55 19.75-14 30.68-7.29zm244.93 76.08c105.41 33.16 192.42 61.14 193.38 61.91 1.53 1.53-95.45 313.36-98.51 316.81-1.15 1.34-387.91-119.4-394.05-122.85-1.34-.96 14.57-54.24 47.91-160.03l50.02-158.69 4.79 1.15c2.7.76 91.05 28.35 196.46 61.7zm285.57-56.15c7.09 3.07 12.46 11.5 12.46 19.55 0 2.88-3.45 16.1-7.67 29.71-6.32 19.93-8.82 25.3-13.61 29.32-12.45 10.54-32.58 3.83-35.45-11.69-1.34-6.9 3.83-27.21 12.84-51.56 6.13-16.1 16.87-21.46 31.43-15.33zM217.88 569.84c8.05 8.82 7.86 12.84-1.72 43.32-9.01 28.94-13.42 34.31-27.98 34.31-7.28 0-9.58-.96-15.14-6.51-8.43-8.43-8.43-13.61.58-42.55 8.05-26.26 10.54-30.86 18.78-34.5 8.8-4.23 18.19-1.93 25.48 5.93zm526.86 35.84c8.05 8.24 7.67 17.82-1.73 46.57-7.28 22.04-9.01 25.3-14.76 29.13-14.95 10.16-34.69 0-34.69-17.63 0-2.88 3.45-16.29 7.86-29.9 9.58-30.28 13.99-35.27 29.13-33.73 6.72.58 10.74 2.3 14.19 5.56zm-571.52 75.13c6.9 2.88 14.37 12.84 14.37 19.17 0 6.71-15.33 52.32-19.17 57.3-7.86 9.97-23.19 10.54-32.39 1.15-8.24-8.05-8.24-13.42-.77-38.14 8.62-28.94 11.69-34.69 19.74-38.71 8.06-4.22 9.79-4.22 18.22-.77zm530.12 38.9c5.56 3.26 11.31 12.84 11.31 18.78 0 7.67-16.1 53.66-20.12 57.69-13.61 13.61-37.37 4.03-37.37-14.76 0-11.12 14.37-53.86 19.55-58.65 7.85-7.08 17.82-8.23 26.63-3.06zM666.35 837.2c3.45 2.11 7.67 7.09 9.2 10.73 2.87 6.71 2.68 8.05-4.02 30.28-3.83 12.65-8.43 26.06-9.97 29.51-7.47 15.91-32.01 15.72-39.67-.38-1.72-3.64-3.07-7.67-3.07-9.01 0-6.52 16.1-53.09 19.74-57.12 8.05-8.61 17.83-9.95 27.79-4.01z"/></svg>