<?xml version="1.0" encoding="utf-8"?>
<!-- Svg Vector Icons : http://www.onlinewebfonts.com/icon -->
<!DOCTYPE svg PUBLIC "-//W3C//DTD SVG 1.1//EN" "http://www.w3.org/Graphics/SVG/1.1/DTD/svg11.dtd">
<svg version="1.1" xmlns="http://www.w3.org/2000/svg" xmlns:xlink="http://www.w3.org/1999/xlink" x="0px" y="0px" viewBox="0 0 1000 1000" enable-background="new 0 0 1000 1000" xml:space="preserve">
<metadata> Svg Vector Icons : http://www.onlinewebfonts.com/icon </metadata>
<g><g transform="translate(0.000000,512.000000) scale(0.100000,-0.100000)"><path d="M3324.9,4995c-9.6-36.4-1149.9-3649.1-1995.2-6330.4C1057.6-2194,831.4-2907,827.6-2920.4c-11.5-30.7,199.3-95.8,231.9-72.8c107.3,78.6,141.8,95.8,205.1,95.8c101.6,0,174.4-59.4,207-168.7c26.8-88.2,30.7-92,143.7-126.5c65.2-19.2,1061.8-335.4,2217.5-699.6c1155.7-364.2,2112-663.1,2123.6-663.1c11.5,0,21.1,7.7,21.1,17.3c0,30.7,126.5,97.7,180.2,97.7c59.4,0,145.7-40.2,184-86.2c13.4-17.3,30.7-61.3,36.4-99.7c11.5-65.1,17.2-70.9,143.7-115c72.8-23,136.1-42.2,138-38.3c3.8,3.8,567.3,1786.3,1255.4,3961.6c686.2,2175.3,1251.5,3965.4,1257.3,3978.8c5.8,15.3-34.5,38.3-118.8,63.2c-147.6,46-162.9,47.9-162.9,19.2c0-51.7-67.1-155.2-116.9-180.2c-180.2-93.9-375.7,65.2-323.9,260.7c11.5,44.1,19.2,80.5,15.3,84.3c-3.8,1.9-996.6,316.2-2209.8,699.6C5044,4489,4041.7,4807.2,4028.3,4811c-13.4,5.7-36.4-23-55.6-69c-42.2-109.3-107.3-155.2-212.7-155.2c-72.8,0-95.8,9.6-153.3,67.1c-65.2,65.2-67.1,72.8-61.3,184l7.7,118.8l-67.1,23C3340.2,5029.5,3336.4,5031.4,3324.9,4995z M3648.8,4326.1c65.2-30.7,124.6-124.6,124.6-195.5c0-21.1-34.5-147.6-78.6-281.7c-95.8-299-138-354.6-276-354.6c-76.7,0-99.7,9.6-155.2,65.2c-88.2,88.2-84.3,164.8,17.2,471.5c70.9,210.8,88.2,245.3,145.7,281.7C3503.1,4364.4,3562.5,4368.3,3648.8,4326.1z M6080.9,3567.1c1077.1-337.3,1962.6-621,1970.2-626.7c11.5-11.5-967.9-3158.5-990.9-3179.6C7050.7-248.7,3139,981.7,3116,1002.8c-7.7,7.7,197.4,684.2,456.1,1506.4c569.2,1805.4,527.1,1675.1,540.5,1675.1C4118.3,4184.3,5003.8,3906.4,6080.9,3567.1z M3307.6,3139.8c61.3-40.3,107.3-151.4,92-220.4c-5.7-30.7-46-157.2-86.3-281.7c-86.2-260.6-128.4-312.4-251.1-312.4c-103.5,0-178.2,42.2-216.6,122.7c-17.2,36.4-30.7,74.7-30.7,84.3c0,30.7,147.6,492.6,170.6,538.6C3045.1,3180,3196.5,3212.6,3307.6,3139.8z M8562.9,2775.6c51.7-24.9,116.9-130.3,116.9-185.9c0-40.2-147.6-506-174.4-548.1c-97.8-157.2-348.8-113.1-398.7,69c-15.3,53.7-5.7,107.3,57.5,314.3c44.1,138,88.2,266.4,97.8,283.6C8317.5,2796.7,8461.3,2829.3,8562.9,2775.6z M2941.6,1968.7c49.8-34.5,84.3-107.3,84.3-182.1c0-30.7-32.6-161-70.9-289.4c-78.6-253-128.4-325.8-235.7-348.8c-120.7-23-268.3,93.9-268.3,212.7c0,67.1,153.3,529,187.8,569.2C2715.4,2014.7,2843.8,2032,2941.6,1968.7z M8242.8,1560.5c72.8-82.4,70.9-164.8-17.3-438.9c-82.4-264.5-145.7-348.8-262.6-348.8c-40.2,0-95.8,13.4-124.6,28.8c-53.7,26.8-116.9,130.3-116.9,189.7c0,34.5,145.7,498.3,172.5,550.1C7953.4,1650.6,8152.7,1662.1,8242.8,1560.5z M2502.7,638.6c126.5-76.7,130.3-180.2,17.2-517.5c-76.7-233.8-138-306.7-253-306.7c-128.4,0-237.7,97.7-237.7,210.8c0,49.8,128.4,465.7,166.7,540.5C2247.8,671.2,2393.4,705.7,2502.7,638.6z M4952-122.2c1054.1-331.6,1924.2-611.4,1933.8-619.1c15.3-15.3-954.5-3133.6-985.1-3168.1c-11.5-13.4-3879.1,1194-3940.5,1228.5c-13.4,9.6,145.7,542.4,479.1,1600.3l500.2,1586.9l47.9-11.5C3014.4,487.2,3897.9,211.3,4952-122.2z M7807.7,439.3c70.9-30.7,124.6-115,124.6-195.5c0-28.8-34.5-161-76.7-297.1c-63.2-199.3-88.2-253-136.1-293.2C7595-451.9,7393.7-384.8,7365-229.6c-13.4,69,38.3,272.1,128.4,515.6C7554.7,447,7662.1,500.6,7807.7,439.3z M2178.8-578.4c80.5-88.2,78.6-128.4-17.2-433.2c-90.1-289.4-134.2-343.1-279.8-343.1c-72.8,0-95.8,9.6-151.4,65.1c-84.3,84.3-84.3,136.1,5.8,425.5c80.5,262.6,105.4,308.6,187.8,345C2012-476.8,2105.9-499.8,2178.8-578.4z M7447.4-936.8c80.5-82.4,76.7-178.2-17.3-465.7c-72.8-220.4-90.1-253-147.6-291.3c-149.5-101.6-346.9,0-346.9,176.3c0,28.8,34.5,162.9,78.6,299c95.8,302.8,139.9,352.7,291.3,337.3C7372.7-887,7412.9-904.2,7447.4-936.8z M1732.2-1688.1c69-28.8,143.7-128.4,143.7-191.7c0-67.1-153.3-523.2-191.7-573c-78.6-99.7-231.9-105.4-323.9-11.5c-82.4,80.5-82.4,134.2-7.7,381.4c86.2,289.4,116.9,346.9,197.4,387.1C1630.6-1653.6,1647.9-1653.6,1732.2-1688.1z M7033.4-2077.1c55.6-32.6,113.1-128.4,113.1-187.8c0-76.7-161-536.6-201.2-576.9c-136.1-136.1-373.7-40.3-373.7,147.6c0,111.2,143.7,538.6,195.5,586.5C6845.6-2036.9,6945.3-2025.4,7033.4-2077.1z M6663.5-3252c34.5-21.1,76.7-70.9,92-107.3c28.7-67.1,26.8-80.5-40.2-302.8c-38.3-126.5-84.3-260.6-99.7-295.1c-74.7-159.1-320.1-157.2-396.7,3.8c-17.2,36.4-30.7,76.7-30.7,90.1c0,65.2,161,530.9,197.4,571.2C6466.1-3206,6563.9-3192.6,6663.5-3252z"/></g></g>
</svg>